<?xml version="1.0" encoding="UTF-8" standalone="no"?>
<svg width="39px" height="36px" viewBox="0 0 39 36" version="1.1" xmlns="http://www.w3.org/2000/svg" xmlns:xlink="http://www.w3.org/1999/xlink" xmlns:sketch="http://www.bohemiancoding.com/sketch/ns">
    <title>Untitled 2</title>
    <description>Created with Sketch (http://www.bohemiancoding.com/sketch)</description>
    <defs></defs>
    <g id="Page-1" stroke="none" stroke-width="1" fill="none" fill-rule="evenodd" sketch:type="MSPage">
        <g id="Eye" sketch:type="MSLayerGroup" transform="translate(0.000000, 3.000000)" fill="#000000" fill-opacity="0.4">
            <path d="M19.5,30 C30.2695532,30 39,15 39,15 C39,15 30.2695532,0 19.5,0 C8.73044685,0 0,15 0,15 C0,15 8.73044685,30 19.5,30 Z M19.5,24 C24.7467054,24 29,19.970563 29,15 C29,10.029437 24.7467054,6 19.5,6 C14.2532946,6 10,10.029437 10,15 C10,19.970563 14.2532946,24 19.5,24 Z" id="Oval-20" sketch:type="MSShapeGroup"></path>
            <ellipse id="Oval-21-copy" sketch:type="MSShapeGroup" cx="19.5" cy="15" rx="5.5" ry="5"></ellipse>
        </g>
    </g>
</svg>