<?xml version="1.0" encoding="utf-8"?>
<!-- Generator: Adobe Illustrator 17.1.0, SVG Export Plug-In . SVG Version: 6.00 Build 0)  -->
<!DOCTYPE svg PUBLIC "-//W3C//DTD SVG 1.1//EN" "http://www.w3.org/Graphics/SVG/1.1/DTD/svg11.dtd">
<svg version="1.1" id="Layer_1" xmlns:sketch="http://www.bohemiancoding.com/sketch/ns"
	 xmlns="http://www.w3.org/2000/svg" xmlns:xlink="http://www.w3.org/1999/xlink" x="0px" y="0px" viewBox="0 0 64 46"
	 enable-background="new 0 0 64 46" xml:space="preserve">


  <g id="icon-persona">
    <path id="person" fill="#2E8DAB" d="M35,35H14c-0.6,0-1-0.4-1-1v-7.1c0-0.3,0.1-0.6,0.3-0.8c0.1-0.1,2.6-2.2,5.3-3.9
            c-1.1-1.3-1.7-3-1.7-4.7c0-4.1,3.4-7.5,7.5-7.5s7.5,3.4,7.5,7.5c0,1.8-0.6,3.5-1.7,4.8c2.8,1.7,5.2,3.8,5.4,3.9
            c0.2,0.2,0.4,0.5,0.4,0.8V34C36,34.6,35.6,35,35,35z M15,33h19v-5.6c-0.9-0.7-3.4-2.7-5.8-4c-0.3-0.2-0.5-0.5-0.5-0.8
            c0-0.3,0.1-0.6,0.4-0.9c1.3-1,2-2.6,2-4.2c0-3-2.5-5.5-5.5-5.5S19,14.5,19,17.5c0,1.6,0.7,3.1,1.9,4.2c0.3,0.2,0.4,0.5,0.3,0.9
            s-0.2,0.6-0.5,0.8c-2.4,1.3-4.9,3.3-5.8,4V33z"/>
    <path id="border" fill="#2E8DAB" d="M0,5v36c0,2.8,2.2,5,5,5h29c2.4,0,5.9-1,7.9-2.4
            c0,0,0.1-0.1,0.2-0.1c0.2-0.1,0.4-0.3,0.7-0.5c0.7-0.5,1.6-1,2.5-1.7c2.6-1.7,5.1-3.6,7.5-5.4c1.6-1.3,3.1-2.5,4.4-3.7
            c4.3-3.8,6.8-6.9,6.8-9.3s-2.4-5.4-6.8-9.3c-1.3-1.2-2.8-2.4-4.4-3.7c-2.4-1.9-4.9-3.7-7.5-5.4C44.4,4,43.6,3.5,42.8,3
            c-0.3-0.2-0.5-0.3-0.7-0.5c-0.1-0.1-0.2-0.1-0.2-0.2C39.9,1,36.4,0,34,0H5C2.2,0,0,2.2,0,5z M34,2c2,0,5.1,0.9,6.8,2
            c0.1,0,0.1,0.1,0.3,0.2c0.2,0.1,0.4,0.3,0.7,0.4c0.7,0.5,1.6,1,2.4,1.6c2.5,1.7,5,3.5,7.4,5.4c1.6,1.2,3.1,2.4,4.4,3.6
            c3.9,3.4,6.1,6.2,6.1,7.8s-2.2,4.4-6.1,7.8c-1.3,1.1-2.8,2.3-4.4,3.6c-2.4,1.8-4.9,3.6-7.4,5.4c-0.9,0.6-1.7,1.2-2.4,1.6
            c-0.3,0.2-0.5,0.3-0.7,0.4c-0.1,0.1-0.2,0.1-0.2,0.2c-1.7,1.1-4.8,2-6.8,2H5c-1.7,0-3-1.3-3-3V5c0-1.7,1.3-3,3-3H34z"/>
  </g>

</svg>
