<?xml version="1.0" encoding="utf-8"?>
<!-- Generator: Adobe Illustrator 17.1.0, SVG Export Plug-In . SVG Version: 6.00 Build 0)  -->
<!DOCTYPE svg PUBLIC "-//W3C//DTD SVG 1.1//EN" "http://www.w3.org/Graphics/SVG/1.1/DTD/svg11.dtd">
<svg version="1.1" id="Layer_1" xmlns:sketch="http://www.bohemiancoding.com/sketch/ns"
	 xmlns="http://www.w3.org/2000/svg" xmlns:xlink="http://www.w3.org/1999/xlink" x="0px" y="0px" viewBox="-43.2 12.3 39 39"
	 enable-background="new -43.2 12.3 39 39" xml:space="preserve">
<title>Untitled</title>
<description>Created with Sketch (http://www.bohemiancoding.com/sketch)</description>
<g id="Page-1" sketch:type="MSPage">
	<g id="Clock" transform="translate(1.000000, 0.000000)" sketch:type="MSLayerGroup">
		<path opacity="0.4" d="M-24.7,51.3c-10.8,0-19.5-8.7-19.5-19.5c0-10.8,8.7-19.5,19.5-19.5c10.8,0,19.5,8.7,19.5,19.5
			C-5.2,42.6-13.9,51.3-24.7,51.3z M-24.7,15.3c-9.1,0-16.5,7.4-16.5,16.5c0,9.1,7.4,16.5,16.5,16.5c9.1,0,16.5-7.4,16.5-16.5
			C-8.2,22.7-15.6,15.3-24.7,15.3z"/>
		<path opacity="0.4" d="M-18.7,33.3h-6c-0.5,0-1-0.3-1.3-0.7s-0.3-1,0-1.5l5-9c0.4-0.7,1.3-1,2-0.6c0.7,0.4,1,1.3,0.6,2l-3.8,6.8
			h3.5c0.8,0,1.5,0.7,1.5,1.5S-17.9,33.3-18.7,33.3z"/>
	</g>
</g>
</svg>
