<?xml version="1.0" encoding="utf-8"?>
<!-- Generator: Adobe Illustrator 17.1.0, SVG Export Plug-In . SVG Version: 6.00 Build 0)  -->
<!DOCTYPE svg PUBLIC "-//W3C//DTD SVG 1.1//EN" "http://www.w3.org/Graphics/SVG/1.1/DTD/svg11.dtd">
<svg version="1.1" id="Layer_1" xmlns="http://www.w3.org/2000/svg" xmlns:xlink="http://www.w3.org/1999/xlink" x="0px" y="0px"
	 viewBox="0 0 169.845 49.375" enable-background="new 0 0 169.845 49.375" xml:space="preserve">
<g>
	<g>
		<path fill="#525252" d="M25.358,34.432c1.448,0,3.477-0.41,6.087-1.23c2.609-0.82,4.657-1.584,6.146-2.295
			c3.973-1.911,8.466-4.722,13.478-8.433c1.081-0.763,1.771-1.145,2.074-1.145c0.181,0,0.22,0.163,0.119,0.491
			c-0.101,0.327-0.756,0.981-1.966,1.963c-4.221,3.493-8.624,6.305-13.208,8.435c-5.525,2.624-10.432,3.936-14.716,3.936
			c-1.872,0-3.28-0.369-4.225-1.108"/>
		<path fill="#525252" d="M1.553,49.176c-0.238,0.26-0.926,0.256-1.375,0.045c-1.827-0.86,10.815-15.047,18.382-22.888
			c7.554-7.827,12.426-12.069,14.623-12.739c0.504-0.095,0.829-0.144,0.972-0.144c0.811,0,0.96,0.885,0.448,2.652
			c0.614-0.477,1.725-0.932,3.328-1.362c1.951-0.477,3.308-0.717,4.072-0.717c1.717,0,3.065,0.491,4.048,1.47
			c0.981,0.98,1.231,2.307,0.748,3.981c-1.118,3.876-4.388,7.554-9.811,11.029c-5.429,3.479-9.77,5.219-13.022,5.219
			c-2.152,0-3.677-0.144-4.572-0.432c-0.897-0.288-1.733-1.152-2.508-2.592 M43.355,18.757c0.525-1.817-0.286-2.726-2.433-2.726
			c-2.147,0-4.236,0.455-6.264,1.363c-0.923,0.383-3.776,2.487-8.564,6.316c-4.793,3.833-7.351,6.302-7.672,7.405
			c-0.252,0.864,0.216,1.511,1.406,1.943c1.189,0.432,2.453,0.648,3.792,0.648c2.629,0,6.291-1.499,10.983-4.497
			C39.29,26.213,42.208,22.729,43.355,18.757z"/>
		<path fill="#525252" d="M48.948,32.122c-0.415,1.44,0.167,2.16,1.745,2.16c1.578,0,3.851-0.839,6.82-2.52
			c1.042-0.59,2.097-1.254,3.164-1.991c1.969-1.362,1.238,0.5-0.064,1.445c-4.27,3.1-7.634,4.65-10.089,4.65
			c-1.578,0-2.81-0.371-3.695-1.116c-0.886-0.744-1.103-1.896-0.653-3.455c0.449-1.558,1.377-3.368,2.784-5.429
			c2.323-3.256,5.721-7.347,10.191-12.271C67.332,4.527,72.583,0,74.917,0c0.475,0,0.913,0.178,1.311,0.536
			c0.398,0.357,0.559,0.75,0.484,1.179c-1.519,1.477-4.439,4.315-8.763,8.512c-4.33,4.203-7.357,7.227-9.078,9.068
			c-1.723,1.842-3.014,3.219-3.872,4.128c-0.86,0.91-1.504,1.617-1.935,2.12c-0.432,0.503-0.956,1.162-1.572,1.976
			C50.211,29.149,49.363,30.683,48.948,32.122z"/>
		<path fill="#525252" d="M87.523,14.239l1.063-0.215c0.524,0,0.964,0.215,1.32,0.645c0.354,0.43,0.499,0.765,0.431,1.004
			c-0.068,0.24-2.201,2.546-6.402,6.924c-4.206,4.383-6.555,7.439-7.046,9.165c-0.041,0.144-0.058,0.288-0.051,0.432
			c-0.075,1.105,0.294,1.656,1.107,1.656c2.485,0,8.197-4.125,17.119-12.365c0.197-0.191,0.391-0.287,0.582-0.287
			c0.19,0,0.236,0.18,0.135,0.539c-0.101,0.359-0.448,0.826-1.04,1.4c-8.433,8.195-14.258,12.298-17.461,12.298
			c-0.43,0-0.817-0.072-1.158-0.216c-1.872-0.816-2.473-2.4-1.804-4.751c0.232-0.815,0.559-1.63,0.983-2.445l-5.674,4.317
			c-3.533,2.496-5.934,3.744-7.2,3.744c-1.268,0-2.358-0.408-3.272-1.225c-1.016-0.96-1.297-2.232-0.844-3.815
			c1.002-3.499,4.635-7.679,10.893-12.537c6.25-4.851,11.4-7.276,15.454-7.276c1.574,0,2.466,0.55,2.68,1.648
			c0.034,0.383,0.061,0.706,0.083,0.968C87.44,14.108,87.475,14.239,87.523,14.239z M61.075,31.906
			c-0.494,1.727-0.144,2.592,1.051,2.592c2.773,0,7.419-3.047,13.932-9.136l10.567-10.478c-0.193-0.668-0.717-1.003-1.575-1.003
			c-2.91,0-7.417,2.258-13.524,6.778C65.409,25.182,61.925,28.933,61.075,31.906z"/>
		<path fill="#525252" d="M112.313,12.591l10.342-0.144c0.116,0.096,0.167,0.168,0.154,0.215c-0.12,0.43-3.256,1.028-9.41,1.791
			c-6.154,0.765-9.491,1.219-10.008,1.362c-1.136,0.813-3.49,3.24-7.065,7.283c-3.579,4.049-5.634,7.008-6.163,8.879
			c-0.502,1.776,0.466,2.664,2.905,2.664c1.147,0,2.755-0.36,4.823-1.08c2.067-0.72,3.69-1.391,4.87-2.015
			c3.148-1.678,6.708-4.147,10.679-7.405c0.856-0.67,1.403-1.006,1.643-1.006c0.143,0,0.174,0.144,0.094,0.431
			c-0.08,0.287-0.599,0.862-1.558,1.724c-3.344,3.067-6.833,5.537-10.465,7.407c-4.378,2.304-8.265,3.457-11.66,3.457
			c-1.483,0-2.599-0.324-3.348-0.973c-0.749-0.648-0.845-1.955-0.288-3.923c0.556-1.966,2.179-4.662,4.867-8.087
			c2.686-3.422,4.717-5.968,6.097-7.642c-0.709,0.144-1.302,0.215-1.779,0.215c-1.384,0-1.92-0.549-1.609-1.649
			c0.23-0.812,0.964-1.385,2.203-1.72c0.143,0,0.364-0.023,0.664-0.072h4.149c1.168-1.098,2.501-2.363,4.001-3.795
			c1.817-1.717,2.965-2.576,3.442-2.576c0.476,0,1.019,0.191,1.626,0.572c0.607,0.382,0.838,0.835,0.69,1.36
			c-0.148,0.525-1.727,2.076-4.741,4.654C108.694,12.567,110.31,12.591,112.313,12.591z"/>
		<path fill="#525252" d="M111.797,36.658c-0.527,0-0.984-0.072-1.374-0.216c-2.817-0.864-3.863-2.593-3.136-5.184
			c0.942-3.355,4.134-7.236,9.569-11.641c5.429-4.398,9.812-6.597,13.151-6.597c1.097,0,1.908,0.299,2.434,0.896
			c0.525,0.598,0.668,1.326,0.429,2.186c-0.745,2.679-3.475,5.237-8.19,7.679c-4.719,2.443-8.344,3.665-10.876,3.665
			c-0.383,0-0.703-0.047-0.963-0.144c-1.079,1.294-1.821,2.661-2.224,4.1c-0.7,2.495,0.134,3.743,2.501,3.743
			c2.367,0,5.888-1.608,10.562-4.822c3.569-2.349,6.747-4.841,9.534-7.475c0.59-0.574,1.038-0.861,1.349-0.861
			c0.31,0,0.426,0.143,0.346,0.431c-0.08,0.287-0.384,0.695-0.912,1.221c-3.525,3.402-7.473,6.422-11.84,9.06
			C117.785,35.338,114.331,36.658,111.797,36.658z M131.12,15.959c0.16-0.574-0.369-0.86-1.585-0.86s-3.206,0.932-5.969,2.796
			c-3.702,2.488-6.772,5.096-9.208,7.826c0.26,0.097,0.556,0.144,0.891,0.144c1.815,0,4.51-0.97,8.084-2.909
			c3.572-1.939,6.06-4.056,7.463-6.351C130.958,16.366,131.066,16.151,131.12,15.959z"/>
		<path fill="#525252" d="M140.332,34.642c-1.614,0.817-3.436,1.224-5.468,1.224c-2.033,0-3.4-0.672-4.102-2.016
			c-0.702-1.343-1.029-3.478-0.979-6.403c-1.1,0.863-1.817,1.294-2.152,1.294c-0.239,0-0.312-0.168-0.218-0.503
			c0.093-0.335,0.293-0.623,0.599-0.863c2.123-1.964,5.583-4.789,10.378-8.475l11.36-8.458c3.247-2.434,5.108-3.65,5.584-3.65
			c1.525,0,2.13,0.572,1.815,1.717c-0.158,0.573-0.54,1.134-1.143,1.682c-0.605,0.549-1.057,0.979-1.357,1.289
			c-0.3,0.311-0.609,0.609-0.927,0.895c-1.267,1.481-2.983,4.541-5.147,9.18c-2.168,4.646-3.743,7.881-4.724,9.703
			c3.98-0.047,8.78-2.637,14.396-7.764c0.608-0.478,1.033-0.718,1.272-0.718c0.239,0,0.315,0.156,0.23,0.467
			c-0.086,0.312-0.416,0.73-0.991,1.257c-3.668,3.258-6.875,5.535-9.622,6.83C147.502,32.05,140.332,34.642,140.332,34.642z
			 M132.869,26.656c-0.453,1.63-0.285,2.96,0.503,3.991c0.789,1.032,1.852,1.547,3.192,1.547c1.338,0,2.439-0.263,3.302-0.791
			c1.101-0.527,2.656-2.733,4.662-6.615c2.003-3.878,3.509-7.297,4.52-10.262l0.96-2.436c-3.166,1.959-6.67,4.492-10.514,7.6
			c-3.848,3.112-5.96,5.17-6.334,6.176C133.032,26.153,132.936,26.417,132.869,26.656z"/>
	</g>
	<g>
		<path fill="#525252" d="M169.985,36.25c0,0-0.5,0.372-1.468,1.005c-0.968,0.635-2.416,1.525-4.333,2.527
			c-1.929,0.981-4.315,2.094-7.271,2.889c-2.935,0.7-6.334,1.088-9.996,1.457c-3.675,0.357-7.661,0.654-11.879,0.918
			c-2.11,0.117-4.277,0.237-6.493,0.359c-0.563,0.024-1.091,0.062-1.694,0.068c-0.56,0.003-1.123,0.006-1.688,0.009
			c-1.131,0.006-2.273,0.012-3.424,0.018c-9.21,0.047-19.035,0.097-28.86,0.147c-9.825,0.023-19.649,0.045-28.86,0.067
			c-4.605,0.027-9.057-0.032-13.278-0.043c-4.221-0.027-8.213-0.053-11.897-0.077c-7.368-0.062-13.509-0.113-17.807-0.149
			c-1.075-0.022-2.034-0.041-2.869-0.058c-0.419-0.02-0.788,0.006-1.208-0.059c-0.2-0.031-0.392-0.072-0.595-0.154
			c-0.179-0.08-0.483-0.207-0.586-0.609c-0.051-0.401,0.139-0.567,0.231-0.698c0.113-0.127,0.219-0.212,0.318-0.286
			c0.196-0.149,0.37-0.24,0.508-0.312c0.276-0.146,0.424-0.2,0.424-0.2l0.007-0.003c0.126-0.046,0.264,0.019,0.31,0.145
			c0.036,0.098,0.004,0.204-0.071,0.268c0,0-0.114,0.097-0.336,0.284c-0.108,0.093-0.237,0.216-0.373,0.354
			c-0.066,0.069-0.133,0.148-0.177,0.222c-0.05,0.067-0.035,0.154-0.025,0.045c-0.037-0.11-0.041-0.061,0.074-0.035
			c0.099,0.029,0.241,0.049,0.393,0.058c0.285,0.013,0.69-0.012,1.105-0.016c0.835-0.017,1.794-0.036,2.869-0.058
			c4.298-0.036,10.439-0.087,17.807-0.149c3.684-0.024,7.675-0.05,11.897-0.077c4.221-0.012,8.673-0.071,13.278-0.043
			c9.21,0.021,19.035,0.044,28.86,0.067c9.825,0.05,19.649,0.1,28.86,0.147c2.291-0.013,4.592,0.078,6.758-0.02
			c2.212-0.093,4.376-0.185,6.482-0.274c4.212-0.208,8.191-0.452,11.855-0.76c3.668-0.322,7.005-0.658,9.906-1.31
			c2.847-0.707,5.251-1.757,7.164-2.685c1.912-0.95,3.364-1.802,4.333-2.41c0.973-0.608,1.466-0.96,1.466-0.96
			c0.108-0.077,0.258-0.052,0.336,0.056C170.116,36.022,170.09,36.172,169.985,36.25z"/>
	</g>
</g>
</svg>
