<?xml version="1.0" encoding="UTF-8" standalone="no"?>
<svg width="170px" height="49px" viewBox="0 0 170 49" version="1.1" xmlns="http://www.w3.org/2000/svg" xmlns:xlink="http://www.w3.org/1999/xlink" xmlns:sketch="http://www.bohemiancoding.com/sketch/ns">
    <title>Web</title>
    <description>Created with Sketch (http://www.bohemiancoding.com/sketch)</description>
    <defs></defs>
    <g id="Page-1" stroke="none" stroke-width="1" fill="none" fill-rule="evenodd" sketch:type="MSPage">
        <g id="Web" sketch:type="MSArtboardGroup" transform="translate(-62.000000, -9.000000)" fill="#85BCB1">
            <g id="logo" sketch:type="MSLayerGroup" transform="translate(62.000000, 9.000000)">
                <g id="Group" sketch:type="MSShapeGroup">
                    <g id="Shape">
                        <path d="M25.18018,34.2576728 C26.6209948,34.2576728 28.6399266,33.8428331 31.2369754,33.0131535 C33.8330291,32.1834739 35.8708666,31.4104553 37.352478,30.6910624 C41.3057633,28.7575042 45.7764683,25.9133221 50.763598,22.158516 C51.8392339,21.3865093 52.52581,21 52.8273065,21 C53.0074083,21 53.0462148,21.1649241 52.945716,21.496796 C52.8452172,21.827656 52.1934674,22.4893761 50.9894716,23.482968 C46.7894169,27.0172007 42.4082652,29.8623946 37.8470118,32.0175379 C32.3494277,34.6725126 27.466777,36 23.2040349,36 C21.341324,36 19.9403108,35.6266442 19,34.8789207"></path>
                        <path d="M1.55202755,48.800126 C1.3142201,49.0606654 0.626776719,49.0566571 0.178139974,48.8452193 C-1.64738192,47.983435 10.9843903,33.7669991 18.5452683,25.9097302 C26.0931569,18.0664904 30.9612153,13.8156889 33.1564379,13.1442988 C33.6600301,13.0491017 33.9847672,13 34.1276515,13 C34.9379954,13 35.0868748,13.8868362 34.575289,15.6575025 C35.1887923,15.1795128 36.2988935,14.7235687 37.9005966,14.2926766 C39.8500182,13.8146869 41.2059203,13.5741889 41.9693022,13.5741889 C43.6849131,13.5741889 45.0318225,14.0662076 46.0140272,15.0472389 C46.9942336,16.0292723 47.2440313,17.3590256 46.7614221,19.0364989 C45.6443266,22.920541 42.3769721,26.6061723 36.9583595,30.0883824 C31.5337517,33.5746007 27.1962637,35.318211 23.9468947,35.318211 C21.7966357,35.318211 20.2728695,35.1739122 19.3785936,34.8853146 C18.4823193,34.5967171 17.6469957,33.7309244 16.8726227,32.2879366 L1.55202755,48.800126 Z M42.8462169,18.7761245 C43.3680054,16.9257143 42.5619664,16 40.4280998,16 C38.2942332,16 36.2180119,16.4633663 34.2024174,17.3880622 C33.2850635,17.7781047 30.4495156,19.9207921 25.6908043,23.820198 C20.9271236,27.7236775 18.3847711,30.2380764 18.0657347,31.3613579 C17.8152762,32.2412447 18.2804134,32.9001414 19.4631341,33.3400849 C20.6448608,33.7800283 21.9011288,34 23.231938,34 C25.8448561,34 29.4844553,32.4734371 34.1477538,29.4203112 C38.8060829,26.3692221 41.7062332,22.8211598 42.8462169,18.7761245 L42.8462169,18.7761245 Z"></path>
                        <path d="M49.0209151,32.2420119 C48.6029692,33.687392 49.1891006,34.410082 50.7783022,34.410082 C52.3675038,34.410082 54.656639,33.5679474 57.6467148,31.8806669 C58.6961115,31.2884626 59.7586005,30.6219818 60.8331748,29.8822283 C62.8161519,28.5151397 62.0799629,30.3840964 60.7687205,31.332627 C56.4684094,34.444209 53.0805296,36 50.6081025,36 C49.0189009,36 47.7781554,35.6276139 46.8868731,34.8798305 C45.9945838,34.1330508 45.7760434,32.9767468 46.2292377,31.4119222 C46.681425,29.8481013 47.6160125,28.0313389 49.0330003,25.9626387 C51.3724904,22.6944739 54.7946115,18.5881894 59.2963423,13.6457927 C67.5354161,4.54391346 72.8236909,0 75.1742591,0 C75.6526309,0 76.0937401,0.178665031 76.4945654,0.538002565 C76.8953906,0.896336363 77.0575335,1.29080466 76.9820011,1.72140746 C75.4522183,3.20392572 72.5114903,6.05252886 68.1567959,10.2652094 C63.7960589,14.4839123 60.7475714,17.5192104 59.0143547,19.3670886 C57.2791238,21.2159706 55.9789594,22.5981152 55.1148688,23.5105113 C54.248764,24.4239112 53.6001925,25.1335527 53.166133,25.6384319 C52.7310664,26.1433112 52.2033467,26.8047733 51.582974,27.6218145 C50.2928807,29.2579044 49.438861,30.7976356 49.0209151,32.2420119 L49.0209151,32.2420119 Z"></path>
                        <path d="M87.6307673,14.0257917 L88.7013226,13.80952 C89.2290469,13.80952 89.6721742,14.0257917 90.0307045,14.458335 C90.3872205,14.8908784 90.5332511,15.2278598 90.4647678,15.4682734 C90.3962845,15.709693 88.2481242,18.0293325 84.0172656,22.4332274 C79.7813714,26.8421519 77.4156759,29.9162274 76.9211861,31.6524363 C76.8798947,31.7972881 76.8627739,31.9421398 76.8698236,32.0869915 C76.7942906,33.1985273 77.1659132,33.7527864 77.9846916,33.7527864 C80.4873538,33.7527864 86.2399518,29.6033879 95.2253649,21.3146501 C95.4237651,21.1225204 95.619144,21.0259526 95.8115015,21.0259526 C96.0028519,21.0259526 96.0491789,21.2070173 95.947461,21.5681407 C95.8457432,21.9292641 95.4962769,22.3990263 94.9000692,22.9764214 C86.4071317,31.219893 80.5407305,35.3471613 77.3149651,35.3471613 C76.8819089,35.3471613 76.4921583,35.2747354 76.1487347,35.1298837 C74.2634294,34.3090573 73.6581578,32.7156882 74.3319127,30.3507826 C74.5655617,29.5309621 74.8948858,28.7111415 75.3218994,27.891321 L69.6075714,32.2338551 C66.0494606,34.7446184 63.6313955,36 62.3563974,36 C61.0793851,36 59.9816379,35.5895868 59.0611417,34.7677544 C58.0379205,33.8020762 57.7549233,32.5225526 58.211143,30.9301895 C59.2202647,27.4104937 62.8790862,23.2057699 69.181565,18.3190359 C75.4759868,13.4393433 80.6625905,11 84.7454043,11 C86.3305915,11 87.2289314,11.5532531 87.4444524,12.6577476 C87.478694,13.0430129 87.5058859,13.3679234 87.5280423,13.6314731 C87.5471774,13.8940168 87.5824261,14.0257917 87.6307673,14.0257917 L87.6307673,14.0257917 Z M61.2187937,32.3598487 C60.7203234,34.118931 61.0734906,35 62.2793044,35 C65.0773977,35 69.7654402,31.8963962 76.3373774,25.6942814 L87,15.0216326 C86.8052535,14.3412233 86.2765117,14 85.4107476,14 C82.4744145,14 77.9266299,16.2999466 71.7643666,20.9039142 C65.5920128,25.5109376 62.0764855,29.3316195 61.2187937,32.3598487 L61.2187937,32.3598487 Z"></path>
                        <path d="M112.593984,12.6100854 L122.845387,12.4671431 C122.960371,12.562438 123.010924,12.6339091 122.998038,12.6805638 C122.879089,13.1074052 119.770561,13.7010125 113.670471,14.4584078 C107.570381,15.2177884 104.262613,15.6684534 103.750142,15.810403 C102.624094,16.617431 100.290715,19.0266031 96.7470326,23.0399047 C93.1993851,27.0591622 91.1623872,29.9964264 90.6380213,31.8536827 C90.1404189,33.6166369 91.0999391,34.498114 93.5175731,34.498114 C94.6545253,34.498114 96.248439,34.1407584 98.298323,33.4260473 C100.347216,32.7113361 101.955998,32.045265 103.125661,31.4258487 C106.246084,29.7601747 109.774898,27.3093111 113.711112,24.0752432 C114.559613,23.4101648 115.101821,23.0766329 115.339719,23.0766329 C115.481466,23.0766329 115.512194,23.2195751 115.432895,23.5044669 C115.353596,23.7893587 114.839143,24.360135 113.888544,25.2158031 C110.573837,28.260274 107.115402,30.7121302 103.515218,32.5683939 C99.1755703,34.8554695 95.3226209,36 91.9573616,36 C90.4873529,36 89.3811292,35.67838 88.6386905,35.0341473 C87.8962519,34.3909073 87.8010928,33.093508 88.3532134,31.1399643 C88.9043428,29.1884058 90.5131251,26.5122096 93.1775779,23.1123685 C95.8400481,19.7155053 97.8532563,17.1882073 99.2211673,15.5265039 C98.5183782,15.6694461 97.930573,15.7399246 97.4577516,15.7399246 C96.0858756,15.7399246 95.5545711,15.1949573 95.8628467,14.1030375 C96.0908318,13.2970022 96.8184019,12.7282112 98.0465481,12.395672 C98.1882954,12.395672 98.4073594,12.372841 98.7047313,12.3242009 L102.817386,12.3242009 C103.975154,11.2342664 105.296476,9.97855867 106.783336,8.55707763 C108.584419,6.85269009 109.722362,6 110.195184,6 C110.667014,6 111.205257,6.18959698 111.80694,6.56779829 C112.408622,6.94699226 112.637599,7.39666468 112.490895,7.91780822 C112.344192,8.43895176 110.779024,9.97855867 107.791427,12.5376216 C109.006687,12.5862617 110.608531,12.6100854 112.593984,12.6100854 L112.593984,12.6100854 Z"></path>
                        <path d="M111.755654,37 C111.226198,37 110.767068,36.9268974 110.37525,36.7806921 C107.54512,35.9034605 106.494245,34.1479821 107.224633,31.5173026 C108.171024,28.1109231 111.377902,24.1704882 116.838234,19.6980286 C122.292539,15.2326762 126.695968,13 130.050531,13 C131.152644,13 131.967424,13.303579 132.495876,13.9097216 C133.023323,14.5168796 133.166989,15.2560284 132.926875,16.1291987 C132.178403,18.8492258 129.435678,21.4463999 124.698702,23.9257974 C119.957707,26.4062103 116.315811,27.6469244 113.772009,27.6469244 C113.387224,27.6469244 113.065732,27.5992047 112.80452,27.5007192 C111.720491,28.8145359 110.975033,30.2024706 110.570154,31.6635079 C109.866892,34.1967172 110.704779,35.4638294 113.082812,35.4638294 C115.460844,35.4638294 118.998255,33.831204 123.694041,30.5679838 C127.279676,28.1830104 130.472488,25.6528471 133.272479,22.9785092 C133.865229,22.3957188 134.315317,22.1043235 134.627766,22.1043235 C134.939211,22.1043235 135.055752,22.2495135 134.975379,22.541924 C134.895006,22.8333192 134.589589,23.2475675 134.059128,23.7816228 C130.517698,27.2357221 126.551297,30.3019714 122.163942,32.9803706 C117.771564,35.6597851 114.301465,37 111.755654,37 L111.755654,37 Z M130.971782,15.8786922 C131.133784,15.2922162 130.598163,15 129.366945,15 C128.135726,15 126.120821,15.9522571 123.323241,17.8567713 C119.574909,20.3988482 116.466487,23.0635333 114,25.8528701 C114.263254,25.9519785 114.562959,26 114.902151,26 C116.739866,26 119.468595,25.008917 123.087325,23.0277726 C126.70403,21.0466283 129.223168,18.8836151 130.643727,16.538733 C130.807754,16.2945384 130.917106,16.0748653 130.971782,15.8786922 L130.971782,15.8786922 Z"></path>
                        <path d="M139.795038,34.7791154 C138.201423,35.5940359 136.402435,36 134.396098,36 C132.388775,36 131.03904,35.3297104 130.345906,33.9891312 C129.652772,32.6495494 129.329902,30.5199835 129.379271,27.6024283 C128.293164,28.4632318 127.585219,28.8931348 127.25445,28.8931348 C127.018469,28.8931348 126.946391,28.7255624 127.039203,28.391415 C127.131029,28.0572677 127.328503,27.7700007 127.630638,27.5306115 C129.726825,25.5716104 133.143126,22.7538006 137.877566,19.0771824 L149.09409,10.6407099 C152.300081,8.212905 154.137577,7 154.607565,7 C156.113305,7 156.710664,7.57054413 156.399642,8.71262984 C156.243638,9.28417142 155.866462,9.84374355 155.271078,10.3903488 C154.673719,10.9379514 154.227428,11.366857 153.931217,11.676068 C153.635006,11.9862764 153.329908,12.2835179 153.015925,12.56879 C151.764927,14.0460205 150.070599,17.0982321 147.93393,21.7254248 C145.793312,26.3595996 144.238204,29.5863658 143.269594,31.4037284 C147.199327,31.356848 151.938704,28.7734402 157.483775,23.6594896 C158.084096,23.1827062 158.503728,22.9433171 158.739709,22.9433171 C158.975691,22.9433171 159.050731,23.09892 158.966804,23.4091284 C158.881891,23.7203343 158.556059,24.1372704 157.988321,24.6629291 C154.366647,27.9126367 151.200151,30.1838412 148.487845,31.4755452 C146.874482,32.1937126 139.795038,34.7791154 139.795038,34.7791154 L139.795038,34.7791154 Z M132.24237,26.4906486 C131.79945,28.1122165 131.963711,29.4353363 132.734177,30.4610028 C133.505621,31.4876641 134.544967,32 135.85515,32 C137.163378,32 138.239879,31.7383605 139.083675,31.2130919 C140.160176,30.6888181 141.680575,28.49423 143.641939,24.632312 C145.600369,20.7743733 147.072858,17.3730601 148.061362,14.4233983 L149,12 C145.904448,13.9488659 142.478418,16.4687624 138.719953,19.5606844 C134.957577,22.6565858 132.892572,24.7039395 132.526894,25.7047354 C132.401743,25.9902507 132.307879,26.252885 132.24237,26.4906486 L132.24237,26.4906486 Z"></path>
                    </g>
                    <path d="M169.901908,36.4397794 C169.901908,36.4397794 169.402921,36.8152836 168.436884,37.4542464 C167.470846,38.0952281 166.025782,38.9936119 164.112668,40.0050507 C162.187579,40.9952917 159.806416,42.1187761 156.856409,42.921265 C153.927359,43.627859 150.53525,44.0195139 146.880674,44.3919899 C143.213124,44.7523528 139.235205,45.0521506 135.025756,45.3186374 C132.920034,45.4367396 130.757427,45.55787 128.54592,45.6810192 C127.984061,45.7052453 127.457131,45.7436032 126.855354,45.7496598 C126.296489,45.752688 125.734631,45.7557163 125.170776,45.7587445 C124.042069,45.7648011 122.902384,45.7708576 121.753718,45.7769141 C112.562389,45.8243568 102.757307,45.8748278 92.9522258,45.9252988 C83.1471441,45.9485155 73.3430604,45.9707227 64.150734,45.99293 C59.5550698,46.0201843 55.1120954,45.9606285 50.8996527,45.9495249 C46.68721,45.9222706 42.703303,45.8960256 39.0267716,45.8717996 C31.6737089,45.8092155 25.5451586,45.7577351 21.255872,45.721396 C20.1830513,45.6991888 19.2259955,45.6800098 18.3926883,45.6628496 C17.9745378,45.6426612 17.6062859,45.6689062 17.1871373,45.6032939 C16.9875428,45.5720018 16.795932,45.5306156 16.5933436,45.4478432 C16.4147065,45.3670896 16.1113228,45.2388932 16.0085316,44.8331064 C15.957635,44.428329 16.1472498,44.2607653 16.2390633,44.1285313 C16.3518342,44.0003349 16.4576193,43.9145342 16.5564186,43.8398372 C16.7520212,43.6894336 16.9256685,43.5975764 17.0633887,43.5248981 C17.3388292,43.3775228 17.4865291,43.3230141 17.4865291,43.3230141 L17.4935149,43.3199859 C17.6192595,43.2735526 17.7569797,43.3391649 17.8028865,43.4663518 C17.8388135,43.5652749 17.8068784,43.6722735 17.7320304,43.7368763 C17.7320304,43.7368763 17.6182615,43.8347901 17.3967116,44.0235516 C17.2889305,44.1174277 17.1601921,44.2415863 17.0244678,44.3808863 C16.9586016,44.4505363 16.8917374,44.5302804 16.8478266,44.6049775 C16.797928,44.6726086 16.8128976,44.7604282 16.8228773,44.6504014 C16.7859523,44.5393652 16.7819604,44.5888268 16.8967273,44.6150717 C16.9955266,44.6443449 17.1372387,44.6645333 17.2889305,44.6736181 C17.5733528,44.6867405 17.9775317,44.661505 18.3916904,44.6574673 C19.2249976,44.6403072 20.1820534,44.6211282 21.254874,44.598921 C25.5441606,44.5625819 31.6727109,44.5111014 39.0257736,44.4485174 C42.702305,44.4242913 46.685214,44.3980464 50.8986547,44.3707921 C55.1110974,44.358679 59.5540718,44.2991233 64.149736,44.327387 C73.3410645,44.3485848 83.1461461,44.3718015 92.9512278,44.3950182 C102.756309,44.4454892 112.560393,44.4959602 121.75272,44.5434029 C124.039075,44.5302804 126.33541,44.6221376 128.497019,44.5232145 C130.704535,44.4293384 132.864147,44.3364718 134.965878,44.2466334 C139.169339,44.0366741 143.140272,43.7903756 146.796844,43.4794742 C150.457408,43.154441 153.787643,42.8152759 156.682762,42.1571341 C159.52399,41.4434742 161.923116,40.3835832 163.832238,39.4468415 C165.740362,38.4878925 167.189418,37.6278667 168.156454,37.0141393 C169.127481,36.400412 169.619482,36.0450962 169.619482,36.0450962 C169.727263,35.9673708 169.876958,35.9926063 169.9548,36.1016237 C170.032642,36.2096316 170.006695,36.3610446 169.901908,36.4397794 L169.901908,36.4397794 Z" id="Shape"></path>
                </g>
            </g>
        </g>
    </g>
</svg>